<svg xmlns="http://www.w3.org/2000/svg" viewBox="0 0 64 64">
  <defs>
    <linearGradient id="g" x1="4" y1="32" x2="60" y2="32" gradientUnits="userSpaceOnUse">
      <stop offset="0%" stop-color="#A78BFA"/>
      <stop offset="55%" stop-color="#7C3AED"/>
      <stop offset="100%" stop-color="#DB2777"/>
    </linearGradient>
    <linearGradient id="sh" x1="0" y1="0" x2="0" y2="64" gradientUnits="userSpaceOnUse">
      <stop offset="0%" stop-color="#000" stop-opacity="0.35"/>
      <stop offset="100%" stop-color="#000" stop-opacity="0"/>
    </linearGradient>
  </defs>
  <g transform="translate(0.6 1.2)" opacity="0.5">
    <path d="M 4 4 L 16 4 L 60 32 L 30 32 Z" fill="#000"/>
    <path d="M 4 60 L 16 60 L 60 32 L 30 32 Z" fill="#000"/>
  </g>
  <path d="M 4 4 L 16 4 L 60 32 L 30 32 Z" fill="url(#g)"/>
  <path d="M 4 60 L 16 60 L 60 32 L 30 32 Z" fill="url(#g)"/>
  <path d="M 6 4.6 L 14 4.6 L 58.5 31 L 56 32 Z" fill="#FFF" opacity="0.32"/>
  <path d="M 30 32 L 33 30.2 L 33 33.8 Z" fill="#FFF" opacity="0.55"/>
  <path d="M 4 60 L 16 60 L 60 32 L 30 32 Z" fill="url(#sh)"/>
</svg>